<?xml version="1.0" encoding="UTF-8"?>
<svg width="692px" height="120px" viewBox="0 0 692 120" version="1.1" xmlns="http://www.w3.org/2000/svg" xmlns:xlink="http://www.w3.org/1999/xlink">
    <!-- Generator: Sketch 42 (36781) - http://www.bohemiancoding.com/sketch -->
    <title>Group 3</title>
    <desc>Created with Sketch.</desc>
    <defs></defs>
    <g id="Page-1" stroke="none" stroke-width="1" fill="none" fill-rule="evenodd">
        <g id="Group-3" fill="#FFFFFF">
            <g id="Instagram_simple_icon-Copy-2" fill-rule="nonzero">
                <path d="M60,10.8264286 C76.0157143,10.8264286 77.912619,10.887619 84.2380952,11.1761905 C90.0861905,11.4430952 93.2619048,12.42 95.3757143,13.2414286 C97.980974,14.2029809 100.337615,15.7361886 102.272381,17.7283333 C104.264526,19.6630996 105.797733,22.0197403 106.759286,24.625 C107.580714,26.7385714 108.557857,29.9145238 108.824524,35.762619 C109.113095,42.087619 109.174286,43.9845238 109.174286,60.0007143 C109.174286,76.0169048 109.113095,77.9133333 108.824524,84.2388095 C108.557619,90.0869048 107.580476,93.262619 106.759286,95.3764286 C104.7414,100.607481 100.606766,104.742114 95.3757143,106.76 C93.2621429,107.581429 90.0861905,108.558571 84.2380952,108.825238 C77.9142857,109.11381 76.017381,109.175 60,109.175 C43.982619,109.175 42.0864286,109.11381 35.7619048,108.825238 C29.9138095,108.558333 26.7380952,107.58119 24.6242857,106.76 C22.0190224,105.798455 19.6623801,104.265246 17.727619,102.273095 C15.7354806,100.338324 14.2022739,97.9816846 13.2407143,95.3764286 C12.4192857,93.2628571 11.4421429,90.0869048 11.1754762,84.2388095 C10.8869048,77.9140476 10.8257143,76.0169048 10.8257143,60.0007143 C10.8257143,43.9845238 10.8869048,42.0880952 11.1754762,35.762619 C11.442381,29.9145238 12.4192857,26.7388095 13.2407143,24.625 C14.202374,22.0196105 15.7357487,19.6628818 17.7280952,17.7280952 C19.6628667,15.7359568 22.0195059,14.2027501 24.6247619,13.2411905 C26.7383333,12.4197619 29.9142857,11.442619 35.762381,11.1759524 C42.087381,10.887381 43.9842857,10.8261905 60.0004762,10.8261905 L60,10.8264286 Z M60.0004762,0.0188095238 C43.7104762,0.0188095238 41.6671429,0.0878571429 35.2704762,0.379761905 C28.8859524,0.671190476 24.5259524,1.685 20.7107143,3.16785714 C16.7084759,4.67395981 13.0829336,7.03494998 10.0869048,10.0861905 C7.03497664,13.0820315 4.67332722,16.7075879 3.16666667,20.71 C1.685,24.5254762 0.671190476,28.8854762 0.380952381,35.27 C0.0878571429,41.6666667 0.0188095238,43.71 0.0188095238,60 C0.0188095238,76.29 0.0878571429,78.3333333 0.380952381,84.73 C0.672380952,91.1145238 1.68619048,95.4745238 3.16904762,99.2897619 C4.67515715,103.291997 7.03614641,106.917538 10.087381,109.913571 C13.0834001,112.964824 16.7089451,115.325816 20.7111905,116.831905 C24.5266667,118.314762 28.8866667,119.328571 35.2709524,119.62 C41.6685714,119.911905 43.7111905,119.980952 60.0009524,119.980952 C76.2907143,119.980952 78.3342857,119.911905 84.7309524,119.62 C91.1154762,119.328571 95.4754762,118.314762 99.2907143,116.831905 C107.347558,113.715826 113.716778,107.346605 116.832857,99.2897619 C118.315714,95.4742857 119.329524,91.1142857 119.620952,84.73 C119.912857,78.332381 119.981905,76.2897619 119.981905,60 C119.981905,43.7102381 119.912857,41.6666667 119.620952,35.27 C119.329524,28.8854762 118.315714,24.5254762 116.832857,20.7102381 C115.326768,16.7079927 112.965776,13.0824477 109.914524,10.0864286 C106.918434,7.03457976 103.292628,4.67308893 99.29,3.16666667 C95.4745238,1.685 91.1145238,0.671190476 84.73,0.380952381 C78.3333333,0.0878571429 76.29,0.0188095238 60,0.0188095238 L60,0.0188095238 L60.0004762,0.0188095238 Z" id="Shape"></path>
                <path d="M60,29.1988095 C42.9889722,29.1988095 29.1988095,42.9889722 29.1988095,60 C29.1988095,77.0110278 42.9889722,90.8011905 60,90.8011905 C77.0110278,90.8011905 90.8011905,77.0110278 90.8011905,60 C90.8011905,42.9889722 77.0110278,29.1988095 60,29.1988095 L60,29.1988095 Z M60,79.9935714 C48.9578864,79.9934399 40.006579,71.0419549 40.0066667,59.9998413 C40.0067543,48.9577277 48.9582039,40.0063847 60.0003175,40.0064286 C71.0424311,40.0064724 79.9938095,48.9578864 79.9938095,60 C79.993678,71.0421831 71.0421831,79.9935714 60,79.9935714 Z" id="Shape"></path>
                <ellipse id="Oval" cx="92.0180952" cy="27.9819048" rx="7.19761905" ry="7.19761905"></ellipse>
            </g>
            <path d="M150,107.710396 L150,16.1262376 L181.930693,16.1262376 C193.069363,16.1262376 201.021016,17.9929681 205.785891,21.7264851 C210.550766,25.4600022 212.933168,31.6996262 212.933168,40.4455446 C212.933168,50.3465842 209.746319,58.050715 203.372525,63.5581683 C196.998731,69.0656216 188.077615,71.8193069 176.608911,71.8193069 L168.688119,71.8193069 L168.688119,107.710396 L150,107.710396 Z M168.688119,59.2574257 L172.40099,59.2574257 C178.919175,59.2574257 184.065575,57.7413518 187.840347,54.7091584 C191.615118,51.676965 193.502475,47.5619072 193.502475,42.3638614 C193.502475,33.2466541 187.706329,28.6881188 176.113861,28.6881188 L168.688119,28.6881188 L168.688119,59.2574257 Z M261.014851,100.408416 C254.90921,106.307785 248.370497,109.257426 241.398515,109.257426 C235.457891,109.257426 230.631207,107.442262 226.918317,103.811881 C223.205427,100.1815 221.34901,95.4785767 221.34901,89.7029703 C221.34901,82.1946819 224.350218,76.4088487 230.352723,72.345297 C236.355228,68.2817454 244.946314,66.25 256.126238,66.25 L261.014851,66.25 L261.014851,60.0618812 C261.014851,53.0073905 256.992614,49.480198 248.94802,49.480198 C241.81102,49.480198 234.591621,51.50163 227.289604,55.5445545 L227.289604,42.9207921 C235.581725,39.7854629 243.791213,38.2178218 251.918317,38.2178218 C269.698934,38.2178218 278.589109,45.2928335 278.589109,59.4430693 L278.589109,89.5173267 C278.589109,94.8391355 280.301138,97.5 283.725248,97.5 C284.344063,97.5 285.14851,97.4174926 286.138614,97.2524752 L286.571782,107.524752 C282.693875,108.679874 279.269817,109.257426 276.299505,109.257426 C268.791217,109.257426 263.964532,106.307785 261.819307,100.408416 L261.014851,100.408416 Z M261.014851,90.5693069 L261.014851,76.769802 L256.683168,76.769802 C244.843175,76.769802 238.923267,80.4826361 238.923267,87.9084158 C238.923267,90.4249301 239.779282,92.5391829 241.491337,94.2512376 C243.203391,95.9632924 245.317644,96.8193069 247.834158,96.8193069 C252.124609,96.8193069 256.518129,94.7359944 261.014851,90.5693069 Z M302.227723,107.710396 L302.227723,39.7648515 L320.544554,39.7648515 L320.544554,107.710396 L302.227723,107.710396 Z M302.227723,28.3168317 L302.227723,13.0321782 L320.544554,13.0321782 L320.544554,28.3168317 L302.227723,28.3168317 Z M343.440594,107.710396 L343.440594,39.7648515 L361.757426,39.7648515 L361.757426,52.5742574 C367.739304,43.0032525 375.453748,38.2178218 384.90099,38.2178218 C390.965377,38.2178218 395.750808,40.1361194 399.257426,43.9727723 C402.764044,47.8094251 404.517327,53.0486467 404.517327,59.6905941 L404.517327,107.710396 L386.200495,107.710396 L386.200495,64.2079208 C386.200495,56.4933608 383.642765,52.6361386 378.527228,52.6361386 C372.710367,52.6361386 367.120489,56.740883 361.757426,64.950495 L361.757426,107.710396 L343.440594,107.710396 Z M481.992574,105.420792 C473.28791,107.978561 465.037168,109.257426 457.240099,109.257426 C445.895158,109.257426 436.943102,106.039636 430.383663,99.6039604 C423.824225,93.1682847 420.544554,84.3812438 420.544554,73.2425743 C420.544554,62.7227197 423.545762,54.2553951 429.548267,47.8403465 C435.550773,41.425298 443.481799,38.2178218 453.341584,38.2178218 C463.283878,38.2178218 470.544532,41.353104 475.123762,47.6237624 C479.702993,53.8944208 481.992574,63.8159387 481.992574,77.3886139 L439.851485,77.3886139 C441.089115,90.342474 448.205381,96.8193069 461.200495,96.8193069 C467.34739,96.8193069 474.278014,95.3960538 481.992574,92.549505 L481.992574,105.420792 Z M439.60396,67.0544554 L463.985149,67.0544554 C463.985149,55.4619882 460.251688,49.6658416 452.784653,49.6658416 C445.193856,49.6658416 440.800336,55.4619882 439.60396,67.0544554 Z M500.928218,107.710396 L500.928218,10 L519.24505,10 L519.24505,107.710396 L500.928218,107.710396 Z M532.116337,107.710396 L567.759901,16.1262376 L586.819307,16.1262376 L622.462871,107.710396 L602.908416,107.710396 L593.378713,83.2673267 L555.507426,83.2673267 L545.977723,107.710396 L532.116337,107.710396 Z M560.210396,71.0767327 L588.675743,71.0767327 L574.443069,34.5668317 L560.210396,71.0767327 Z M630.321782,106.905941 L630.321782,91.1881188 C640.181567,95.313552 648.617952,97.3762376 655.631188,97.3762376 C660.540454,97.3762376 664.407989,96.2830142 667.233911,94.0965347 C670.059833,91.9100551 671.472772,88.9397877 671.472772,85.1856436 C671.472772,82.2153317 670.585817,79.7091686 668.811881,77.6670792 C667.037945,75.6249898 663.675767,73.2013342 658.725248,70.3960396 L652.59901,66.9925743 C644.389398,62.3720891 638.593251,57.9476284 635.210396,53.7190594 C631.827541,49.4904904 630.136139,44.5503583 630.136139,38.8985149 C630.136139,31.3489722 632.910451,25.2846764 638.459158,20.7054455 C644.007866,16.1262147 651.340713,13.8366337 660.457921,13.8366337 C667.759937,13.8366337 675.990053,14.8886033 685.148515,16.9925743 L685.148515,31.6584158 C675.783782,28.1517976 668.37874,26.3985149 662.933168,26.3985149 C658.725226,26.3985149 655.352735,27.3370368 652.815594,29.2141089 C650.278453,31.091181 649.009901,33.5560903 649.009901,36.6089109 C649.009901,39.1254251 649.896856,41.3324988 651.670792,43.230198 C653.444728,45.1278973 656.786279,47.4587321 661.695545,50.2227723 L668.25495,53.8737624 C677.083377,58.8242822 683.1683,63.3828175 686.509901,67.549505 C689.851502,71.7161925 691.522277,76.7903991 691.522277,82.7722772 C691.522277,91.2706696 688.366368,97.9331442 682.054455,102.759901 C675.742543,107.586658 667.038009,110 655.940594,110 C648.597323,110 640.057804,108.968657 630.321782,106.905941 Z" id="PainelAS-Copy"></path>
        </g>
    </g>
</svg>