<?xml version="1.0" encoding="UTF-8"?>
<svg width="380px" height="99px" viewBox="0 0 380 99" version="1.1" xmlns="http://www.w3.org/2000/svg" xmlns:xlink="http://www.w3.org/1999/xlink">
    <!-- Generator: Sketch 42 (36781) - http://www.bohemiancoding.com/sketch -->
    <title>Group</title>
    <desc>Created with Sketch.</desc>
    <defs></defs>
    <g id="Page-1" stroke="none" stroke-width="1" fill="none" fill-rule="evenodd">
        <g id="Group">
            <path d="M138.841,45.404 C138.841,20.39 107.762,0 69.423,0 C31.086,0 0.008,20.39 0.008,45.404 C0.008,46.05 0,47.836 0,48.062 C0,74.598 27.165,96.091 69.415,96.091 C111.926,96.091 138.841,74.604 138.841,48.067 L138.841,45.404" id="Fill-1" fill="#273673"></path>
            <path d="M136.492,44.702 C136.492,68.284 106.609,87.401 69.745,87.401 C32.882,87.401 3,68.284 3,44.702 C3,21.118 32.882,2 69.745,2 C106.609,2 136.492,21.118 136.492,44.702" id="Fill-2" fill="#00A3DB"></path>
            <path d="M47.4146637,31.451738 C47.3796637,31.518738 46.7136637,32.207738 47.1446637,32.761738 C48.1986637,34.106738 51.4516637,34.878738 54.7416637,34.140738 C56.7006637,33.700738 59.2116637,31.703738 61.6436637,29.773738 C64.2796637,27.678738 66.8946637,25.582738 69.5236637,24.748738 C72.3066637,23.862738 74.0906637,24.242738 75.2686637,24.598738 C76.5616637,24.984738 78.0816637,25.835738 80.5066637,27.654738 C85.0736637,31.088738 103.437664,47.117738 106.610664,49.888738 C109.166664,48.734738 120.523664,43.844738 135.957664,40.443738 C134.616664,32.215738 129.611664,24.687738 122.020664,18.523738 C111.441664,22.967738 98.5126637,25.285738 85.8696637,19.110738 C85.8056637,19.084738 78.9626637,15.845738 72.2136637,16.005738 C62.1816637,16.237738 57.8366637,20.579738 53.2376637,25.175738 L47.4146637,31.451738" id="Fill-3" fill="#FFFFFF"></path>
            <path d="M105.531,51.519 C105.316,51.327 83.938,32.621 79.095,28.981 C76.292,26.879 74.733,26.343 73.097,26.134 C72.244,26.023 71.067,26.182 70.244,26.407 C67.991,27.021 65.046,28.99 62.43,31.064 C59.722,33.221 57.168,35.252 54.8,35.782 C51.772,36.461 48.076,35.66 46.389,34.52 C45.706,34.061 45.225,33.529 44.994,32.989 C44.371,31.545 45.52,30.39 45.709,30.196 L51.608,23.815 C52.294,23.131 52.985,22.446 53.691,21.772 C51.788,22.02 50.028,22.506 48.315,22.982 C46.178,23.584 44.122,24.155 42.042,24.154 C41.174,24.154 36.521,23.392 35.638,23.151 C30.3,21.69 25.614,20.268 18.615,17 C10.228,23.243 4.62,31.05 3,39.648 C4.205,39.967 6.146,40.545 6.962,40.726 C25.941,44.945 31.852,49.293 32.925,50.2 C34.086,48.908 35.76,48.091 37.63,48.091 C39.73,48.094 41.622,49.148 42.772,50.779 C43.859,49.921 45.358,49.188 47.296,49.189 C48.176,49.189 49.089,49.352 50.011,49.665 C52.152,50.399 53.257,51.825 53.83,53.115 C54.549,52.791 55.431,52.552 56.472,52.555 C57.493,52.555 58.556,52.788 59.628,53.251 C63.127,54.753 63.672,58.19 63.354,60.781 C63.603,60.752 63.854,60.74 64.109,60.74 C68.258,60.743 71.633,64.115 71.631,68.267 C71.631,69.551 71.303,70.759 70.731,71.819 C71.86,72.454 74.738,73.89 77.264,73.569 C79.283,73.315 80.05,72.625 80.324,72.237 C80.512,71.97 80.711,71.658 80.526,71.435 L75.171,65.485 C75.171,65.485 74.289,64.651 74.58,64.33 C74.883,64 75.427,64.474 75.812,64.796 C78.538,67.072 81.866,70.507 81.866,70.507 C81.922,70.544 82.142,70.98 83.373,71.2 C84.432,71.39 86.306,71.279 87.605,70.213 C87.933,69.943 88.261,69.607 88.534,69.261 C88.513,69.277 88.495,69.301 88.474,69.309 C89.844,67.557 88.323,65.783 88.323,65.783 L82.071,58.763 C82.071,58.763 81.177,57.937 81.48,57.604 C81.753,57.315 82.328,57.751 82.72,58.076 C84.699,59.731 87.496,62.538 90.177,65.164 C90.7,65.547 93.056,67.005 96.176,64.955 C98.068,63.714 98.449,62.189 98.395,61.037 C98.263,59.514 97.075,58.429 97.075,58.429 L88.534,49.843 C88.534,49.843 87.633,49.072 87.951,48.683 C88.212,48.355 88.798,48.827 89.181,49.148 C91.903,51.425 99.267,58.177 99.267,58.177 C99.372,58.251 101.917,60.063 105.061,58.061 C106.185,57.342 106.904,56.258 106.966,55 C107.073,52.815 105.531,51.519 105.531,51.519" id="Fill-4" fill="#FFFFFF"></path>
            <path d="M64.1420004,62.6460032 C62.8180004,62.6310032 61.3700004,63.4170032 61.1800004,63.3030032 C61.0760004,63.2330032 61.2610004,62.7010032 61.3850004,62.3940032 C61.5120004,62.0900032 63.2560004,56.8430032 59.0060004,55.0200032 C55.7530004,53.6220032 53.7640004,55.1950032 53.0810004,55.9050032 C52.9010004,56.0910032 52.8210004,56.0760032 52.8000004,55.8390032 C52.7350004,54.8940032 52.3120004,52.3380032 49.5050004,51.4810032 C45.4920004,50.2530032 42.9120004,53.0540032 42.2570004,54.0640032 C41.9640004,51.7770032 40.0310004,50.0020032 37.6630004,50.0000032 C35.0890004,49.9970032 33.0030004,52.0820032 33.0000004,54.6540032 C32.9990004,57.2260032 35.0850004,59.3120032 37.6570004,59.3120032 C38.9080004,59.3150032 40.0420004,58.8150032 40.8780004,58.0130032 C40.9040004,58.0370032 40.9150004,58.0810032 40.9010004,58.1700032 C40.7060004,59.3210032 40.3440004,63.5080032 44.7280004,65.2120032 C46.4860004,65.8940032 47.9810004,65.3870032 49.2200004,64.5170032 C49.5890004,64.2570032 49.6500004,64.3670032 49.5970004,64.7140032 C49.4390004,65.7900032 49.6390004,68.0960032 52.8710004,69.4060032 C55.3300004,70.4050032 56.7850004,69.3830032 57.7380004,68.5020032 C58.1530004,68.1230032 58.2660004,68.1840032 58.2880004,68.7690032 C58.4050004,71.8850032 60.9930004,74.3580032 64.1350004,74.3610032 C67.3740004,74.3640032 69.9980004,71.7460032 69.9990004,68.5100032 C70.0020004,65.2710032 67.3800004,62.6820032 64.1420004,62.6460032" id="Fill-5" fill="#FFFFFF"></path>
            <path d="M64.506,74.035 C61.572,74.032 59.186,71.752 59.078,68.846 C59.071,68.597 59.045,67.935 58.485,67.935 C58.254,67.935 58.054,68.073 57.824,68.281 C57.179,68.879 56.357,69.487 55.157,69.487 C54.613,69.487 54.022,69.36 53.399,69.106 C50.3,67.851 50.257,65.722 50.383,64.866 C50.417,64.638 50.429,64.4 50.272,64.216 L50.081,64.045 L49.888,64.045 C49.731,64.045 49.569,64.109 49.349,64.264 C48.453,64.894 47.593,65.199 46.719,65.199 C46.238,65.199 45.745,65.103 45.25,64.912 C41.17,63.324 41.493,59.474 41.692,58.315 C41.721,58.08 41.663,57.898 41.514,57.776 L41.226,57.539 L40.956,57.797 C40.161,58.564 39.121,58.983 38.028,58.983 C35.691,58.981 33.789,57.082 33.791,54.745 C33.793,52.407 35.697,50.51 38.034,50.513 C40.145,50.513 41.943,52.101 42.212,54.21 L42.358,55.348 L42.983,54.385 C43.053,54.273 44.765,51.684 47.912,51.687 C48.511,51.687 49.129,51.783 49.751,51.976 C52.261,52.741 52.686,55.017 52.751,55.964 C52.796,56.517 53.189,56.543 53.266,56.543 C53.483,56.543 53.642,56.405 53.755,56.287 C54.229,55.793 55.26,54.971 56.874,54.971 C57.613,54.974 58.399,55.149 59.21,55.497 C63.198,57.208 61.389,62.275 61.368,62.328 C61.025,63.168 61.011,63.539 61.333,63.753 L61.491,63.828 L61.607,63.828 C61.786,63.828 62.01,63.75 62.379,63.625 C62.922,63.438 63.742,63.155 64.507,63.157 L64.509,63.157 C67.511,63.19 69.953,65.633 69.952,68.601 C69.949,71.599 67.506,74.035 64.506,74.035 Z M106.756,49.613 C100.171,43.866 84.952,30.635 80.829,27.541 C78.475,25.77 76.869,24.834 75.458,24.414 C74.826,24.223 73.949,24.005 72.82,24.004 C71.772,24.004 70.646,24.193 69.47,24.567 C66.806,25.41 64.153,27.52 61.585,29.56 L61.453,29.664 C59.062,31.565 56.591,33.531 54.721,33.949 C53.905,34.133 53.065,34.228 52.228,34.228 C50.133,34.225 48.251,33.62 47.546,32.721 C47.43,32.572 47.504,32.331 47.777,31.984 L47.813,31.939 L53.606,25.695 C58.143,21.158 62.429,16.874 72.294,16.647 C72.456,16.643 72.623,16.64 72.786,16.64 C78.927,16.644 85.066,19.393 85.754,19.711 C91.512,22.52 97.454,23.946 103.429,23.951 C109.656,23.953 116.079,22.412 122.833,19.302 C122.079,18.667 121.294,18.05 120.487,17.444 C114.553,20.017 108.9,21.316 103.446,21.315 C97.875,21.31 92.309,19.972 86.906,17.335 C86.62,17.199 79.842,14.003 72.789,14 C72.605,14 72.417,14.003 72.233,14.006 C63.947,14.2 59.279,17.143 56.14,19.721 C53.087,19.795 50.453,20.531 48.11,21.186 C46.019,21.767 44.213,22.271 42.452,22.27 C41.726,22.27 40.42,22.203 40.303,22.199 C38.278,22.138 28.074,19.635 19.956,16.562 C19.127,17.149 18.33,17.754 17.554,18.371 C26.034,21.848 36.353,24.537 39.61,24.747 C40.516,24.807 41.482,24.909 42.448,24.911 C44.602,24.911 46.752,24.307 48.833,23.725 C50.062,23.379 51.418,23.004 52.845,22.731 C52.464,23.105 52.084,23.483 51.703,23.865 L45.817,30.232 C45.354,30.7 44.348,31.948 45.011,33.485 C45.275,34.106 45.81,34.698 46.559,35.203 C47.961,36.148 50.473,36.786 52.806,36.788 C53.69,36.789 54.528,36.7 55.298,36.527 C57.765,35.974 60.353,33.912 63.095,31.732 C65.28,29.997 68.383,27.793 70.759,27.146 C71.423,26.965 72.239,26.853 72.894,26.853 C73.09,26.855 73.275,26.86 73.447,26.885 C75.017,27.084 76.535,27.618 79.245,29.652 C84.076,33.281 105.456,51.985 105.665,52.17 C105.68,52.182 107.043,53.357 106.949,55.313 C106.898,56.402 106.292,57.371 105.241,58.042 C104.328,58.621 103.386,58.916 102.434,58.916 C101.005,58.913 100.021,58.244 99.957,58.198 C99.878,58.134 92.553,51.417 89.859,49.161 C89.429,48.806 89.012,48.485 88.59,48.485 C88.365,48.483 88.165,48.58 88.031,48.749 C87.606,49.272 88.081,49.995 88.641,50.472 L97.198,59.072 C97.209,59.081 98.264,60.07 98.379,61.39 C98.447,62.815 97.765,64.008 96.348,64.937 C95.338,65.602 94.316,65.94 93.315,65.94 C92.001,65.94 91.078,65.341 90.874,65.199 L89.647,63.989 C87.404,61.782 85.087,59.5 83.392,58.085 C82.979,57.741 82.536,57.424 82.117,57.424 C81.909,57.424 81.721,57.501 81.578,57.652 C81.384,57.867 81.249,58.254 81.731,58.895 C81.93,59.158 82.163,59.376 82.163,59.376 L88.408,66.39 C88.459,66.452 89.695,67.92 88.548,69.382 L88.328,69.662 C88.141,69.868 87.939,70.058 87.747,70.222 C86.682,71.096 85.259,71.19 84.696,71.19 C84.395,71.19 84.104,71.163 83.852,71.117 C83.236,71.007 82.822,70.835 82.621,70.599 L82.546,70.52 C82.204,70.167 79.057,66.954 76.453,64.78 C76.11,64.492 75.682,64.13 75.239,64.13 C75.02,64.13 74.826,64.216 74.675,64.382 C74.16,64.946 74.933,65.79 75.261,66.1 L80.587,71.973 C80.581,72.024 80.514,72.146 80.385,72.331 C80.195,72.595 79.548,73.241 77.617,73.483 C77.385,73.515 77.146,73.526 76.91,73.526 C74.917,73.526 72.792,72.56 71.698,71.979 C72.196,70.926 72.454,69.767 72.454,68.604 C72.456,64.22 68.897,60.654 64.514,60.651 C64.42,60.651 64.321,60.654 64.227,60.657 C64.37,58.656 64.087,54.866 60.198,53.198 C59.078,52.714 57.961,52.467 56.876,52.467 C56.027,52.467 55.21,52.612 54.442,52.907 C53.636,51.341 52.298,50.2 50.552,49.606 C49.588,49.272 48.628,49.103 47.701,49.103 C46.082,49.103 44.591,49.579 43.261,50.525 C41.987,48.94 40.062,48.002 38.035,48.002 C36.261,48.002 34.555,48.712 33.29,49.964 C31.633,48.698 25.057,44.521 7.457,40.524 C6.605,40.332 4.649,39.771 3.451,39.42 C3.252,40.373 3.1,41.336 3,42.308 C3,42.308 6.246,43.085 6.885,43.229 C24.865,47.222 30.805,51.374 31.809,52.159 C31.469,52.976 31.292,53.857 31.29,54.745 C31.288,58.459 34.309,61.484 38.027,61.487 C38.443,61.487 38.856,61.451 39.262,61.376 C39.822,64.109 41.611,66.182 44.344,67.245 C45.143,67.552 45.952,67.71 46.745,67.71 C47.258,67.711 47.774,67.647 48.279,67.518 C48.783,68.8 49.919,70.399 52.458,71.43 C53.349,71.788 54.24,71.976 55.105,71.976 C55.812,71.976 56.503,71.852 57.162,71.609 C58.379,74.573 61.276,76.537 64.504,76.537 C66.644,76.54 68.699,75.668 70.197,74.126 C71.48,74.839 74.187,76.129 76.922,76.133 C77.277,76.133 77.609,76.107 77.941,76.068 C80.658,75.725 81.922,74.662 82.503,73.836 C82.608,73.692 82.703,73.539 82.783,73.38 C83.424,73.565 84.129,73.715 84.937,73.717 C86.421,73.717 87.845,73.211 89.285,72.162 C90.699,71.143 91.703,69.679 91.848,68.433 C91.851,68.416 91.854,68.398 91.856,68.379 C92.332,68.478 92.822,68.528 93.31,68.528 C94.837,68.528 96.34,68.052 97.776,67.111 C100.545,65.295 101.027,62.924 100.981,61.371 C101.465,61.473 101.96,61.524 102.453,61.524 C103.887,61.524 105.294,61.093 106.637,60.237 C108.354,59.141 109.387,57.46 109.543,55.505 C109.651,54.176 109.322,52.835 108.62,51.683 C113.261,49.684 123.867,45.815 136.355,43 C136.28,42.031 136.14,41.075 135.967,40.123 C120.856,43.477 109.58,48.357 106.756,49.613 L106.756,49.613 Z" id="Fill-6" fill="#273673"></path>
            <path d="M369.374,33.717 C368.158,35.331 366.419,36.138 364.145,36.138 C361.876,36.138 360.128,35.331 358.903,33.717 C357.676,32.105 357.066,29.809 357.066,26.834 C357.066,23.864 357.676,21.574 358.903,19.969 C360.128,18.365 361.876,17.562 364.145,17.562 C366.419,17.562 368.158,18.365 369.374,19.969 C370.588,21.574 371.199,23.864 371.199,26.834 C371.199,29.809 370.588,32.105 369.374,33.717 Z M375.582,15.708 C373.077,12.568 369.274,11 364.169,11 C359.071,11 355.266,12.568 352.762,15.708 C350.254,18.846 349,22.555 349,26.834 C349,31.19 350.254,34.912 352.762,38.011 C355.266,41.099 359.071,42.649 364.169,42.649 C369.274,42.649 373.077,41.099 375.582,38.011 C378.09,34.912 379.341,31.19 379.341,26.834 C379.341,22.555 378.09,18.846 375.582,15.708 L375.582,15.708 Z" id="Fill-7" fill="#273673"></path>
            <path d="M307.573,30.908 C307.521,33.513 306.774,35.307 305.342,36.29 C303.908,37.274 302.342,37.768 300.643,37.768 C299.567,37.768 298.657,37.469 297.907,36.878 C297.159,36.286 296.787,35.324 296.787,33.994 C296.787,32.502 297.397,31.401 298.623,30.689 C299.352,30.272 300.542,29.913 302.204,29.628 L303.979,29.299 C304.862,29.131 305.557,28.952 306.065,28.76 C306.579,28.573 307.075,28.326 307.573,28.013 L307.573,30.908 Z M311.52,13.939 C308.98,12.651 306.071,12 302.799,12 C297.768,12 294.217,13.314 292.151,15.933 C290.851,17.612 290.122,19.751 289.952,22.355 L297.468,22.355 C297.653,21.206 298.022,20.296 298.577,19.623 C299.352,18.713 300.67,18.258 302.533,18.258 C304.198,18.258 305.457,18.486 306.318,18.956 C307.174,19.419 307.605,20.263 307.605,21.48 C307.605,22.484 307.048,23.219 305.925,23.695 C305.3,23.969 304.264,24.196 302.811,24.378 L300.147,24.706 C297.121,25.087 294.823,25.727 293.267,26.621 C290.421,28.261 289,30.908 289,34.57 C289,37.391 289.88,39.574 291.652,41.113 C293.415,42.652 295.662,43.298 298.372,43.424 C315.369,44.183 315.176,34.467 315.333,32.446 L315.333,21.263 C315.333,17.677 314.06,15.233 311.52,13.939 L311.52,13.939 Z" id="Fill-8" fill="#273673"></path>
            <path d="M273.029,18.564 C274.973,18.564 276.398,19.164 277.321,20.363 C277.953,21.251 278.349,22.252 278.502,23.361 L286.886,23.361 C286.426,19.131 284.945,16.178 282.447,14.505 C279.94,12.84 276.73,12 272.804,12 C268.186,12 264.559,13.419 261.94,16.25 C259.314,19.085 258,23.046 258,28.139 C258,32.649 259.188,36.325 261.564,39.158 C263.94,41.989 267.647,43.407 272.683,43.407 C277.726,43.407 281.532,41.709 284.097,38.312 C285.706,36.208 286.607,33.973 286.797,31.611 L278.441,31.611 C278.272,33.172 277.784,34.446 276.975,35.426 C276.169,36.403 274.811,36.896 272.889,36.896 C270.183,36.896 268.341,35.663 267.361,33.189 C266.826,31.87 266.555,30.123 266.555,27.949 C266.555,25.669 266.826,23.84 267.361,22.459 C268.379,19.865 270.271,18.564 273.029,18.564" id="Fill-9" fill="#273673"></path>
            <path d="M255.21441,12 C237.99241,12 239.01141,27.249 239.01141,27.249 L239.01141,42.738 L246.82641,42.738 L246.82641,28.21 C246.82641,25.83 247.12841,24.067 247.72341,22.92 C248.79641,20.889 250.89041,19.87 254.01641,19.87 C254.25141,19.87 254.56141,19.882 254.94341,19.9 C255.32241,19.918 255.75541,19.953 256.25241,20.01 L256.25241,12.059 C255.90541,12.035 255.68041,12.025 255.58341,12.016 C255.48341,12.007 255.35941,12 255.21441,12" id="Fill-10" fill="#273673"></path>
            <path d="M216.077,20.095 C217.178,18.966 218.721,18.4 220.712,18.4 C222.545,18.4 224.078,18.931 225.318,20.001 C226.552,21.066 227.243,22.632 227.383,24.689 L214.011,24.689 C214.29,22.756 214.982,21.227 216.077,20.095 Z M226.583,34.647 C226.255,35.115 225.902,35.516 225.513,35.829 C224.409,36.738 222.91,37.014 221.145,37.014 C219.474,37.014 218.168,36.761 216.984,36.015 C215.034,34.817 213.937,32.789 213.82,29.811 L235.444,29.811 C235.475,27.249 235.392,25.286 235.185,23.92 C234.825,21.594 234.035,19.545 232.821,17.781 C231.473,15.781 229.757,14.317 227.689,13.387 C225.62,12.464 223.295,12 220.712,12 C216.357,12 212.822,13.372 210.095,16.114 C207.369,18.862 206,22.801 206,27.944 C206,33.434 207.512,37.396 210.534,39.831 C213.553,42.265 217.043,43.485 220.991,43.485 C225.776,43.485 229.501,42.042 232.159,39.153 C233.594,37.633 234.492,36.13 234.871,34.647 L226.583,34.647 L226.583,34.647 Z" id="Fill-11" fill="#273673"></path>
            <path d="M202.696,42.838 L195.558,42.838 L195.558,24.862 C195.558,23.22 195.016,19.313 190.307,19.313 C187.167,19.313 184.895,21.578 184.895,24.862 L184.895,42.838 L177.75,42.838 L177.75,24.862 C177.75,23.22 177.263,19.313 172.557,19.313 C169.362,19.313 167.143,21.578 167.143,24.862 L167.143,42.838 L160,42.838 L160,25.033 C160,17.611 164.923,12 172.557,12 C176.346,12 179.428,13.59 181.433,16.14 C183.541,13.59 186.679,12 190.307,12 C198.1,12 202.696,17.384 202.696,25.033 L202.696,42.838" id="Fill-12" fill="#273673"></path>
            <path d="M337.552,33.9641208 C336.411,35.5991208 334.735,36.4161208 332.542,36.4161208 C330.341,36.4161208 328.704,35.5921208 327.626,33.9501208 C326.547,32.3041208 326.008,29.9101208 326.008,27.1701208 C326.008,24.6271208 326.535,22.4981208 327.599,20.7821208 C328.659,19.0681208 330.323,18.2071208 332.594,18.2071208 C334.084,18.2071208 335.39,18.6801208 336.519,19.6231208 C338.352,21.1851208 339.269,23.9881208 339.269,27.6171208 C339.269,30.2141208 338.696,32.3291208 337.552,33.9641208 Z M346.926,2.03712076 C346.926,2.03712076 339.054,1.19612076 339.054,7.52012076 L339.048,15.8911208 C338.177,14.4931208 337.043,13.3981208 335.645,12.6111208 C334.25,11.8211208 332.653,11.4241208 330.85,11.4241208 C326.946,11.4241208 323.834,12.8781208 321.498,15.7821208 C319.162,18.6891208 318,22.8781208 318,27.9421208 C318,32.3371208 319.184,35.9401208 321.554,38.7461208 C323.923,41.5481208 328.57,42.7781208 332.696,42.7781208 C347.086,42.7781208 346.92,30.4371208 346.92,30.4371208 L346.926,2.03712076 L346.926,2.03712076 Z" id="Fill-13" fill="#273673"></path>
            <path d="M230.91,70.868 C230.91,67.921 230.337,65.656 229.183,64.066 C228.036,62.485 226.39,61.684 224.244,61.684 C222.179,61.684 220.569,62.485 219.415,64.066 C218.347,65.504 217.813,67.777 217.813,70.868 C217.813,73.749 218.385,75.893 219.536,77.331 C220.682,78.921 222.331,79.713 224.475,79.713 C226.464,79.713 228.036,78.921 229.183,77.331 C230.337,75.744 230.91,73.596 230.91,70.868 M217.813,92.014 C217.813,93.072 217.429,93.98 216.659,94.734 C215.896,95.491 214.976,95.869 213.903,95.869 L210,95.869 L210,68.712 C210,63.43 211.78,60.123 214.709,57.888 C216.645,56.41 219.53,55 224.933,55 C228.582,55 232.856,56.416 235.164,59.23 C237.754,62.395 238.834,65.922 238.834,70.528 C238.834,75.293 237.685,79.137 235.39,82.092 C233.093,84.967 230.141,86.398 226.541,86.398 C224.627,86.398 222.943,86.057 221.489,85.382 C219.951,84.624 218.732,83.454 217.813,81.865 L217.813,92.014" id="Fill-14" fill="#00A3DB"></path>
            <path d="M277.671,70.9836478 C277.671,76.1926478 279.178,79.0796478 282.186,79.6506478 C285.191,80.2076478 287.413,79.5096478 288.843,77.5496478 C289.52,76.7246478 290.007,75.4166478 290.309,73.6466478 C290.607,71.8736478 290.631,70.1166478 290.366,68.3806478 C290.107,66.6396478 289.482,65.0916478 288.503,63.7326478 C287.528,62.3756478 286.097,61.6936478 284.216,61.6936478 C281.657,61.6936478 279.932,62.6416478 279.027,64.5216478 C278.118,66.4136478 277.671,68.5646478 277.671,70.9836478 M290.536,84.0056478 L290.536,82.0866478 C289.184,84.2056478 287.355,85.5176478 285.062,86.0506478 C282.766,86.5756478 280.491,86.3876478 278.239,85.4796478 C275.979,84.5776478 274.04,82.8956478 272.422,80.4446478 C270.808,77.9826478 270,74.7546478 270,70.7516478 C270,66.0766478 271.072,62.2776478 273.213,59.3716478 C275.358,56.4656478 278.803,55.1396478 283.541,55.0096478 C288.21,54.8866478 290.925,55.9436478 293.583,57.9566478 C296.489,60.1626478 298.208,63.5466478 298.208,68.8286478 L298.208,84.8056478 C298.22,89.8896478 294.675,99.3116478 283.541,98.5126478 C276.643,98.0126478 272.813,95.1826478 270.678,88.7706478 L278.914,88.7706478 C279.516,89.8246478 280.435,90.6366478 281.683,91.1986478 C282.917,91.7726478 284.166,91.9186478 285.398,91.6546478 C286.639,91.3906478 287.768,90.6516478 288.791,89.4486478 C289.801,88.2396478 290.383,86.4246478 290.536,84.0056478" id="Fill-15" fill="#00A3DB"></path>
            <path d="M258.569,73.905 C258.52,76.513 257.772,78.303 256.341,79.288 C254.909,80.271 253.343,80.763 251.643,80.763 C250.567,80.763 249.657,80.465 248.909,79.875 C248.158,79.284 247.783,78.32 247.783,76.99 C247.783,75.5 248.397,74.397 249.623,73.686 C250.353,73.269 251.541,72.91 253.203,72.626 L254.977,72.296 C255.864,72.128 256.559,71.951 257.06,71.758 C257.577,71.571 258.073,71.323 258.569,71.01 L258.569,73.905 Z M262.519,56.937 C259.976,55.651 257.068,55 253.799,55 C248.764,55 245.218,56.313 243.149,58.932 C241.852,60.608 241.119,62.748 240.951,65.354 L248.472,65.354 C248.655,64.204 249.022,63.294 249.578,62.622 C250.353,61.712 251.672,61.256 253.532,61.256 C255.201,61.256 256.458,61.485 257.316,61.953 C258.172,62.418 258.604,63.26 258.604,64.48 C258.604,65.482 258.046,66.22 256.925,66.694 C256.302,66.967 255.265,67.194 253.811,67.377 L251.147,67.702 C248.122,68.085 245.822,68.727 244.269,69.618 C241.42,71.257 240,73.905 240,77.565 C240,80.387 240.88,82.57 242.652,84.108 C244.415,85.646 246.661,86.295 249.372,86.42 C266.364,87.18 266.174,77.462 266.329,75.442 L266.329,64.259 C266.329,60.672 265.06,58.233 262.519,56.937 L262.519,56.937 Z" id="Fill-16" fill="#00A3DB"></path>
            <path d="M321.373,77.713 C320.159,79.329 318.417,80.135 316.147,80.135 C313.876,80.135 312.126,79.329 310.905,77.713 C309.674,76.103 309.066,73.808 309.066,70.835 C309.066,67.864 309.674,65.574 310.905,63.971 C312.126,62.364 313.876,61.565 316.147,61.565 C318.417,61.565 320.159,62.364 321.373,63.971 C322.59,65.574 323.197,67.864 323.197,70.835 C323.197,73.808 322.59,76.103 321.373,77.713 M327.584,59.709 C325.076,56.567 321.271,55 316.166,55 C311.073,55 307.267,56.567 304.761,59.709 C302.253,62.846 301,66.553 301,70.835 C301,75.19 302.253,78.911 304.761,82.009 C307.267,85.095 311.073,86.645 316.166,86.645 C321.271,86.645 325.076,85.095 327.584,82.009 C330.088,78.911 331.337,75.19 331.337,70.835 C331.337,66.553 330.088,62.846 327.584,59.709" id="Fill-17" fill="#00A3DB"></path>
        </g>
    </g>
</svg>