<?xml version="1.0" standalone="no"?>
<!DOCTYPE svg PUBLIC "-//W3C//DTD SVG 20010904//EN"
 "http://www.w3.org/TR/2001/REC-SVG-20010904/DTD/svg10.dtd">
<svg version="1.0" xmlns="http://www.w3.org/2000/svg"
 width="228.000000pt" height="228.000000pt" viewBox="0 0 228.000000 228.000000"
 preserveAspectRatio="xMidYMid meet">
<metadata>
Created by potrace 1.11, written by Peter Selinger 2001-2013
</metadata>
<g transform="translate(0.000000,228.000000) scale(0.100000,-0.100000)"
fill="#000000" stroke="none">
<path d="M607 2269 c-101 -11 -163 -28 -255 -70 -167 -77 -285 -234 -329 -439
-16 -75 -18 -141 -18 -580 0 -272 3 -526 7 -565 26 -281 178 -484 421 -560 73
-23 117 -31 237 -40 63 -5 887 -5 935 0 22 2 66 7 97 10 211 21 401 149 487
328 73 152 82 232 81 792 0 518 -4 575 -48 709 -57 175 -184 306 -360 373 -37
13 -68 24 -70 23 -1 -1 -15 1 -30 4 -15 4 -43 9 -62 13 -52 9 -1014 11 -1093
2z"/>
</g>
</svg>
